#!OML:ASF H:\Pregnant\Project 1\Capture day 1\Session 1\femalepreg.ASF
:FULLY-SPECIFIED
:DEGREES
220
root 7.29514 5.49951 20.8395 -137.131 -0.90662 -178.627
lowerback 6.2769 -0.457959 7.90825
upperback 2.46344 -0.376751 2.2084
thorax -0.983986 -0.272707 -2.11984
lowerneck -22.6509 2.1697 -3.10637
upperneck 11.8895 3.76528 0.783516
head 7.24088 1.7372 1.22459
rclavicle -1.63003e-014 -3.53837e-014
rhumerus 34.7788 25.1427 -70.8939
rradius 49.2504
rwrist -19.2458
rhand -6.96162 -32.6134
rfingers 7.12502
rthumb 18.9077 -61.7144
lclavicle -1.63003e-014 -3.53837e-014
lhumerus 4.76247 -21.3169 87.403
lradius 60.1225
lwrist 107.551
lhand 14.7034 -45.8655
lfingers 7.12502
lthumb 39.5724 -20.5119
rfemur -186.829 -22.8063 73.4059
rtibia 151.133
rfoot -21.798 17.4054
rtoes 2.52152
lfemur -186.244 11.3521 -53.3863
ltibia 152.013
lfoot -7.83046 -18.9421
ltoes 5.8522
221
root 7.28809 5.42378 20.8248 -137.46 -0.677752 -178.641
lowerback 6.44587 -0.437233 8.07454
upperback 2.54335 -0.343525 2.28941
thorax -0.990039 -0.261495 -2.12974
lowerneck -22.8266 2.31627 -3.02217
upperneck 11.9099 3.97809 0.591837
head 7.27736 1.82364 1.17704
rclavicle 4.37326e-015 -1.98785e-015
rhumerus 35.069 25.5813 -70.5123
rradius 49.4901
rwrist -19.307
rhand -6.51699 -32.834
rfingers 7.12502
rthumb 19.3353 -61.8927
lclavicle 4.37326e-015 -1.98785e-015
lhumerus 4.64219 -21.6937 87.2233
lradius 60.3517
lwrist 107.78
lhand 15.7125 -45.4982
lfingers 7.12502
lthumb 40.5219 -20.4317
rfemur -188.028 -22.8459 73.8664
rtibia 151.72
rfoot -21.3763 17.9234
rtoes 2.62063
lfemur -187.492 11.5302 -53.8486
ltibia 152.787
lfoot -7.18212 -19.3105
ltoes 5.23265
222
root 7.28044 5.35212 20.8096 -137.773 -0.426066 -178.682
lowerback 6.60231 -0.794479 8.15934
upperback 2.63641 -0.228501 2.34013
thorax -1.0027 0.0372093 -2.13569
lowerneck -23.0012 2.45984 -2.92428
upperneck 11.9287 4.18012 0.414508
head 7.3139 1.90685 1.13096
rclavicle 3.97569e-016 5.56597e-015
rhumerus 35.3981 26.0476 -70.1007
rradius 49.6949
rwrist -19.3936
rhand -6.14607 -32.9945
rfingers 7.12502
rthumb 19.6919 -62.0171
lclavicle 3.97569e-016 5.56597e-015
lhumerus 4.54196 -22.0736 87.0233
lradius 60.5775
lwrist 108.001
lhand 16.6274 -45.184
lfingers 7.12502
lthumb 41.3813 -20.39
rfemur -189.224 -22.8715 74.2596
rtibia 152.281
rfoot -20.9233 18.4384
rtoes 2.74202
lfemur -188.699 11.7047 -54.3307
ltibia 153.536
lfoot -6.55072 -19.6704
ltoes 4.65367
223
root 7.27211 5.28458 20.794 -138.063 -0.153774 -178.753
lowerback 6.73641 -0.798082 8.24488
upperback 2.70812 -0.204949 2.39182
thorax -1.00089 0.0560394 -2.13097
lowerneck -23.1557 2.59883 -2.82862
upperneck 11.9426 4.37334 0.250666
head 7.34592 1.98703 1.08842
rclavicle -1.31198e-014 2.74323e-014
rhumerus 35.6897 26.498 -69.7401
rradius 49.9301
rwrist -19.451
rhand -5.79916 -33.1445
rfingers 7.12502
rthumb 20.0254 -62.1325
lclavicle -1.31198e-014 2.74323e-014
lhumerus 4.45554 -22.387 86.8339
lradius 60.7992
lwrist 108.149
lhand 17.437 -44.9041
lfingers 7.12502
lthumb 42.1404 -20.3613
rfemur -190.421 -22.8822 74.5832
rtibia 152.812
rfoot -20.441 18.947
rtoes 2.8335
lfemur -189.853 11.8621 -54.8189
ltibia 154.254
lfoot -5.945 -20.0062
ltoes 4.03596
224
root 7.26294 5.22153 20.778 -138.33 0.129633 -178.848
lowerback 6.84979 -0.803774 8.30488
upperback 2.77201 -0.189353 2.43509
thorax -0.996318 0.0699634 -2.1203
lowerneck -23.2852 2.73231 -2.73119
upperneck 11.9501 4.55674 0.0903564
head 7.37241 2.06298 1.04522
rclavicle 1.66979e-014 6.2816e-014
rhumerus 35.9591 26.9334 -69.4098
rradius 50.1917
rwrist -19.5304
rhand -5.46743 -33.299
rfingers 7.12502
rthumb 20.3442 -62.2534
lclavicle 1.66979e-014 6.2816e-014
lhumerus 4.38298 -22.6305 86.6602
lradius 61.0263
lwrist 108.259
lhand 18.1752 -44.6317
lfingers 7.12502
lthumb 42.8315 -20.3265
rfemur -191.609 -22.8884 74.8545
rtibia 153.311
rfoot -19.9456 19.4579
rtoes 2.88527
lfemur -190.95 12.0012 -55.3015
ltibia 154.939
lfoot -5.35973 -20.3197
ltoes 3.3932
